<svg width="960" height="150" viewBox="0 0 960 150" fill="none" xmlns="http://www.w3.org/2000/svg">
<rect width="960" height="150" fill="#E5E5E5"/>
<g id="layered-waves 1">
<path id="Vector" d="M960 0H0V300H960V0Z" fill="#379683"/>
<path id="Vector_2" d="M0 161L20 158.3C40 155.7 80 150.3 120 150.5C160 150.7 200 156.3 240 157.3C280 158.3 320 154.7 360 153.7C400 152.7 440 154.3 480 153.8C520 153.3 560 150.7 600 152C640 153.3 680 158.7 720 159.8C760 161 800 158 840 158.2C880 158.3 920 161.7 940 163.3L960 165V0H940C920 0 880 0 840 0C800 0 760 0 720 0C680 0 640 0 600 0C560 0 520 0 480 0C440 0 400 0 360 0C320 0 280 0 240 0C200 0 160 0 120 0C80 0 40 0 20 0H0V161Z" fill="#379683"/>
<path id="Vector_3" d="M0 139L20 136.7C40 134.3 80 129.7 120 127.3C160 125 200 125 240 126.2C280 127.3 320 129.7 360 131.7C400 133.7 440 135.3 480 133.7C520 132 560 127 600 123.3C640 119.7 680 117.3 720 116.3C760 115.3 800 115.7 840 116.8C880 118 920 120 940 121L960 122V0H940C920 0 880 0 840 0C800 0 760 0 720 0C680 0 640 0 600 0C560 0 520 0 480 0C440 0 400 0 360 0C320 0 280 0 240 0C200 0 160 0 120 0C80 0 40 0 20 0H0V139Z" fill="#38A489"/>
<path id="Vector_4" d="M0 113L20 110.7C40 108.3 80 103.7 120 100.5C160 97.3 200 95.7 240 94.2C280 92.7 320 91.3 360 93.2C400 95 440 100 480 103.2C520 106.3 560 107.7 600 106.8C640 106 680 103 720 100.5C760 98 800 96 840 95.2C880 94.3 920 94.7 940 94.8L960 95V0H940C920 0 880 0 840 0C800 0 760 0 720 0C680 0 640 0 600 0C560 0 520 0 480 0C440 0 400 0 360 0C320 0 280 0 240 0C200 0 160 0 120 0C80 0 40 0 20 0H0V113Z" fill="#3DB28E"/>
<path id="Vector_5" d="M0 78L20 77.3C40 76.7 80 75.3 120 75.7C160 76 200 78 240 78.5C280 79 320 78 360 78.8C400 79.7 440 82.3 480 81.3C520 80.3 560 75.7 600 75.8C640 76 680 81 720 81.3C760 81.7 800 77.3 840 76.2C880 75 920 77 940 78L960 79V0H940C920 0 880 0 840 0C800 0 760 0 720 0C680 0 640 0 600 0C560 0 520 0 480 0C440 0 400 0 360 0C320 0 280 0 240 0C200 0 160 0 120 0C80 0 40 0 20 0H0V78Z" fill="#44C092"/>
<path id="Vector_6" d="M0 46L20 45.7C40 45.3 80 44.7 120 46.2C160 47.7 200 51.3 240 52.7C280 54 320 53 360 52.5C400 52 440 52 480 49.7C520 47.3 560 42.7 600 44.2C640 45.7 680 53.3 720 55.3C760 57.3 800 53.7 840 52.7C880 51.7 920 53.3 940 54.2L960 55V0H940C920 0 880 0 840 0C800 0 760 0 720 0C680 0 640 0 600 0C560 0 520 0 480 0C440 0 400 0 360 0C320 0 280 0 240 0C200 0 160 0 120 0C80 0 40 0 20 0H0V46Z" fill="#4FCD94"/>
<path id="Vector_7" d="M0 24L20 26C40 28 80 32 120 31.7C160 31.3 200 26.7 240 22.8C280 19 320 16 360 17.8C400 19.7 440 26.3 480 27C520 27.7 560 22.3 600 19.7C640 17 680 17 720 17.7C760 18.3 800 19.7 840 21.7C880 23.7 920 26.3 940 27.7L960 29V0H940C920 0 880 0 840 0C800 0 760 0 720 0C680 0 640 0 600 0C560 0 520 0 480 0C440 0 400 0 360 0C320 0 280 0 240 0C200 0 160 0 120 0C80 0 40 0 20 0H0V24Z" fill="#5CDB95"/>
</g>
</svg>
